<?xml version="1.0" encoding="UTF-8" standalone="no"?>
<!-- Created with Inkscape (http://www.inkscape.org/) -->

<svg
   width="24.634096mm"
   height="13.255627mm"
   viewBox="0 0 24.634096 13.255627"
   version="1.1"
   id="svg1"
   xml:space="preserve"
   xmlns:xlink="http://www.w3.org/1999/xlink"
   xmlns="http://www.w3.org/2000/svg"
   xmlns:svg="http://www.w3.org/2000/svg"><defs
     id="defs1"><clipPath
       clipPathUnits="userSpaceOnUse"
       id="clipPath2"><rect
         style="opacity:0.75;fill:#ff6600;stroke:#0000ff;stroke-width:0.264583"
         id="rect3"
         width="271.18814"
         height="145.39601"
         x="-37.410885"
         y="-273.63864" /></clipPath></defs><g
     id="layer1"
     transform="translate(-16.764467,-51.174229)"><rect
       style="opacity:1;fill:#dad6ca;fill-opacity:1;stroke:none;stroke-width:0.299978"
       id="rect4"
       width="24.634096"
       height="13.255627"
       x="16.764467"
       y="51.174229" /><text
       xml:space="preserve"
       style="font-size:3.175px;opacity:1;fill:#1a1a1a;stroke:none;stroke-width:0.264583"
       x="22.70792"
       y="58.975246"
       id="text1"><tspan
         id="tspan1"
         style="font-style:normal;font-variant:normal;font-weight:bold;font-stretch:normal;font-family:Arial;-inkscape-font-specification:'Arial Bold';fill:#1a1a1a;stroke:none;stroke-width:0.264583"
         x="22.70792"
         y="58.975246"><tspan
           style="fill:#504d48;fill-opacity:1"
           id="tspan3">DisCou</tspan><tspan
           style="fill:#113b3a;fill-opacity:1"
           id="tspan2">RSE</tspan></tspan></text><g
       id="g17"
       style="fill:#504d48;fill-opacity:1"><circle
         style="opacity:1;fill:#504d48;fill-opacity:1;stroke:none;stroke-width:0.339128"
         id="path4"
         cx="20.616255"
         cy="57.704575"
         r="1.1660042" /><circle
         style="opacity:1;fill:#504d48;fill-opacity:1;stroke:none;stroke-width:0.272311"
         id="circle4"
         cx="23.748293"
         cy="54.572536"
         r="0.93627024" /><circle
         style="opacity:1;fill:#504d48;fill-opacity:1;stroke:none;stroke-width:0.272311"
         id="circle5"
         cx="23.748293"
         cy="60.984665"
         r="0.93627024" /><rect
         style="opacity:1;fill:#504d48;fill-opacity:1;stroke:none;stroke-width:0.18036"
         id="rect5"
         width="0.48721594"
         height="3.5636363"
         x="-26.512995"
         y="55.922745"
         transform="rotate(-45)" /><rect
         style="opacity:1;fill:#504d48;fill-opacity:1;stroke:none;stroke-width:0.18036"
         id="rect6"
         width="0.48721594"
         height="3.5636363"
         x="-55.601723"
         y="-25.704756"
         transform="rotate(-135)" /></g><g
       id="g9"
       style="fill:#113b3a;fill-opacity:1"><path
         id="path6"
         style="opacity:1;fill:#113b3a;fill-opacity:1;stroke:none;stroke-width:0.310155"
         d="m 23.763924,51.990108 a 2.5305541,2.5305541 0 0 0 -1.932182,0.900204 2.5305541,2.5305541 0 0 1 1.759066,-0.719853 2.5305541,2.5305541 0 0 1 2.530595,2.530595 2.5305541,2.5305541 0 0 1 -0.596346,1.628324 2.5305541,2.5305541 0 0 0 0.769462,-1.808675 2.5305541,2.5305541 0 0 0 -2.530595,-2.530595 z" /><path
         id="circle9"
         style="opacity:1;fill:#113b3a;fill-opacity:1;stroke:none;stroke-width:0.295413"
         d="m 23.800614,52.838635 a 1.6387684,1.6387684 0 0 0 -1.329634,0.687297 1.6387684,1.6387684 0 0 1 1.145666,-0.47284 1.6387684,1.6387684 0 0 1 1.63866,1.63866 1.6387684,1.6387684 0 0 1 -0.307475,0.949813 1.6387684,1.6387684 0 0 0 0.491443,-1.163753 1.6387684,1.6387684 0 0 0 -1.63866,-1.639177 z" /></g><g
       id="g16"
       style="fill:#113b3a;fill-opacity:1"><path
         id="path11"
         style="display:inline;opacity:1;fill:#113b3a;fill-opacity:1;stroke:none;stroke-width:0.264583"
         d="m 20.522262,55.027649 a 2.6878867,2.6878867 0 0 0 -2.562118,2.678906 2.6878867,2.6878867 0 0 0 2.687691,2.687691 2.6878867,2.6878867 0 0 0 0.417029,-0.03411 2.6878867,2.6878867 0 0 1 -0.12609,0.0088 2.6878867,2.6878867 0 0 1 -2.687692,-2.687691 2.6878867,2.6878867 0 0 1 2.27118,-2.653585 z" /><path
         id="circle13"
         style="display:inline;opacity:1;fill:#113b3a;fill-opacity:1;stroke:none;stroke-width:0.288085"
         d="m 20.665922,55.769206 a 1.9399753,1.9399753 0 0 0 -1.939933,1.939933 1.9399753,1.9399753 0 0 0 1.939933,1.939933 1.9399753,1.9399753 0 0 0 0.127641,-0.0093 1.9399753,1.9399753 0 0 1 -1.812293,-1.930632 1.9399753,1.9399753 0 0 1 1.843299,-1.933215 1.9399753,1.9399753 0 0 0 -0.158647,-0.0067 z" /></g><g
       id="g15"
       transform="matrix(1,0,0,-1,0,115.48157)"
       style="fill:#113b3a;fill-opacity:1"><path
         id="path14"
         style="opacity:1;fill:#113b3a;fill-opacity:1;stroke:none;stroke-width:0.310155"
         d="m 23.763924,51.990108 a 2.5305541,2.5305541 0 0 0 -1.932182,0.900204 2.5305541,2.5305541 0 0 1 1.759066,-0.719853 2.5305541,2.5305541 0 0 1 2.530595,2.530595 2.5305541,2.5305541 0 0 1 -0.596346,1.628324 2.5305541,2.5305541 0 0 0 0.769462,-1.808675 2.5305541,2.5305541 0 0 0 -2.530595,-2.530595 z" /><path
         id="path15"
         style="opacity:1;fill:#113b3a;fill-opacity:1;stroke:none;stroke-width:0.295413"
         d="m 23.800614,52.838635 a 1.6387684,1.6387684 0 0 0 -1.329634,0.687297 1.6387684,1.6387684 0 0 1 1.145666,-0.47284 1.6387684,1.6387684 0 0 1 1.63866,1.63866 1.6387684,1.6387684 0 0 1 -0.307475,0.949813 1.6387684,1.6387684 0 0 0 0.491443,-1.163753 1.6387684,1.6387684 0 0 0 -1.63866,-1.639177 z" /></g></g></svg>
